# xmcd
#
# Track frame offsets:
#	150
#	11323
#	42742
#	76204
#	84906
#	124996
#	131138
#	153582
#	168475
#	199253
#	226944
#	234494
#	255267
#
# Disc length: 3962 seconds
#
# Revision: 0
# Processed by: cddbd v1.4PL0 Copyright (c) Steve Scherf et al.
# Submitted via: dBpowerAMP V4.0
#
DISCID=a00f780d
DTITLE=Lauryn Hill - MTV Unplugged N°2 
DYEAR=2002
DGENRE=
TTITLE0=Intro
TTITLE1=Mr.Intentional
TTITLE2=Adam Lives In Theory
TTITLE3=Interlude 1
TTITLE4=Oh Jerusalem
TTITLE5=Interlude 2
TTITLE6=Freedom Time
TTITLE7=Interlude 3
TTITLE8=I Find it Hard To Say (Rebel)
TTITLE9=Just Like Water
TTITLE10=Interlude 4
TTITLE11=Just Want You Around
TTITLE12=I Gotta Find Peace Of Mind
EXTD=ED
EXTT0=
EXTT1=
EXTT2=
EXTT3=
EXTT4=
EXTT5=
EXTT6=
EXTT7=
EXTT8=
EXTT9=
EXTT10=
EXTT11=
EXTT12=
PLAYORDER=
